<svg width="163" height="40" viewBox="0 0 163 40" fill="none" xmlns="http://www.w3.org/2000/svg">
<g clip-path="url(#clip0_1_2345)">
<path d="M3 28.1403C3.10485 27.93 3.24466 27.7299 3.30791 27.5078C4.76922 22.3782 6.23385 17.2487 7.66853 12.1107C7.82831 11.5358 8.04301 11.2984 8.67381 11.3188C10.3065 11.3714 11.9426 11.3697 13.5753 11.3188C14.2045 11.3001 14.4208 11.5325 14.579 12.1124C15.1881 14.3338 15.8555 16.5399 16.5779 19.0139C17.3984 16.3211 18.1473 13.8658 18.9063 11.3764H25.0445C25.1693 11.8241 25.3008 12.2938 25.4456 12.8093L24.1707 12.8856V15.302H21.1598V18.4035H24.1424V22.9056H28.3482C28.8825 24.7709 29.4051 26.5989 29.9493 28.5032H22.9757C22.3948 26.3564 21.8089 24.1842 21.1615 21.7881C20.9451 22.5105 20.777 23.043 20.6272 23.5805C20.2162 25.0592 19.8333 26.5463 19.384 28.0131C19.3141 28.242 18.9596 28.532 18.7299 28.5388C17.0139 28.5829 15.2963 28.5829 13.5803 28.5388C13.364 28.5337 13.0311 28.2234 12.9662 27.9927C12.4319 26.0698 11.9476 24.1333 11.3851 21.9492C10.8608 23.9417 10.3348 25.6781 9.96701 27.4467C9.77228 28.3845 9.36618 28.6151 8.47075 28.5896C6.64994 28.5371 4.82414 28.6219 3 28.649V28.1454L3 28.1403ZM23.7096 24.5114V26.4717H25.6253V24.5114H23.7096Z" fill="black"/>
<path d="M123.65 12.3498C122.614 11.7071 121.343 11.4545 120.168 11.0407C120.003 11.0237 119.838 11.0102 119.672 11H118.042C117.59 11.0271 117.145 11.0763 116.721 11.1475C116.712 11.1475 116.706 11.1526 116.697 11.1543C112.893 11.7614 110.33 14.1557 109.709 17.9558C108.783 23.6093 111.48 28.3217 117.3 28.9254C122.897 29.5053 126.928 26.4903 127.459 21.1031C127.812 17.5048 126.868 14.3456 123.65 12.3515V12.3498ZM118.841 25.8494C115.612 26.0952 113.129 23.9976 112.908 20.8351C112.62 16.7349 114.542 14.2744 118.358 14.1184C121.521 13.9895 123.967 15.8124 124.152 19.5905C124.314 22.9107 122.741 25.7069 118.841 25.8511V25.8494Z" fill="black"/>
<path d="M163 11.3205H162.231C162.231 11.3205 162.221 11.3205 162.216 11.3205C157.34 11.3391 152.463 11.3341 147.586 11.3341H146.701V14.3592H153.16V28.5506H156.487V14.3813H162.998V11.3205H163Z" fill="black"/>
<path d="M62.3727 28.6337V11.3358C63.2482 11.3358 64.0987 11.3358 64.9475 11.3358C66.5536 11.3374 68.1631 11.2645 69.7642 11.3561C74.8954 11.6478 77.788 14.89 77.6782 20.1365C77.6433 21.7763 77.3953 23.3634 76.5914 24.8184C75.5561 26.6904 73.9101 27.7689 71.9079 28.2386C68.7722 28.9729 65.5833 28.4794 62.3727 28.6354V28.6337ZM65.7098 14.2778V25.4424C67.1694 25.4424 68.5841 25.5424 69.9772 25.417C71.8579 25.2474 73.3592 24.3707 73.9916 22.4444C74.4444 21.0675 74.456 19.6431 74.1464 18.222C73.722 16.2821 72.547 15.0087 70.6263 14.6797C69.0368 14.4067 67.4008 14.405 65.7098 14.2778Z" fill="black"/>
<path d="M44.2329 28.6168V11.4731C44.2845 11.429 44.3277 11.3629 44.3694 11.3629C47.1056 11.3917 49.8617 11.2272 52.5747 11.507C56.8271 11.9462 59.2188 14.6644 59.5034 18.9936C59.6482 21.198 59.4485 23.3431 58.1769 25.261C56.917 27.1602 55.0446 28.0046 52.9292 28.4302C52.335 28.5489 51.7208 28.6032 51.115 28.61C48.8515 28.6303 46.5879 28.6185 44.2329 28.6185V28.6168ZM47.515 25.4848C48.7433 25.4848 49.8967 25.5136 51.0501 25.4797C54.9414 25.3644 56.2912 23.0701 56.203 19.7702C56.198 19.5752 56.1913 19.3785 56.1747 19.1835C55.9716 16.8095 54.8498 15.1884 52.7111 14.739C51.0368 14.388 49.2859 14.4101 47.515 14.2626V25.4848Z" fill="black"/>
<path d="M107.908 25.4899V28.5523H94.8561V11.3866H107.871V14.3728H98.1831V18.5561H105.871V21.4032H98.1898V25.4916H107.908V25.4899Z" fill="black"/>
<path d="M141.137 11.3781H144.329C144.384 11.4409 144.417 11.4629 144.417 11.4833C144.376 15.5377 144.501 19.6057 144.234 23.6449C144.018 26.938 142.132 28.5065 138.516 28.905C136.43 29.1357 134.361 29.0068 132.514 27.7977C130.981 26.7939 130.31 25.2033 130.254 23.5211C130.121 19.5023 130.21 15.4767 130.21 11.3934H133.348V12.2616C133.348 15.2308 133.323 18.1983 133.363 21.1675C133.374 22.0493 133.549 22.9344 133.699 23.8094C133.747 24.0977 133.915 24.3843 134.09 24.6268C135.17 26.1309 136.748 26.0681 138.303 25.8714C139.692 25.6951 140.633 24.8777 140.902 23.4398C141.035 22.7292 141.12 22.0001 141.127 21.2777C141.15 18.0033 141.137 14.7306 141.137 11.3798V11.3781Z" fill="black"/>
<path d="M80.4976 11.3832H83.7598V25.5221H92.9404V28.5422H80.496V11.3832H80.4976Z" fill="black"/>
<path d="M40.0703 28.5761H36.8764V11.3866H40.0703V28.5761Z" fill="black"/>
<path d="M32.8004 17.4251V21.2794H28.9474V17.4251H32.8004Z" fill="black"/>
<path d="M24.5551 18.2593V15.2596H27.571V18.2593H24.5551Z" fill="black"/>
<path d="M34.8359 24.5454H32.807V22.4681H34.8359V24.5454Z" fill="black"/>
</g>
<defs>
<clipPath id="clip0_1_2345">
<rect width="160" height="18" fill="white" transform="translate(3 11)"/>
</clipPath>
</defs>
</svg>
