<svg width="33" height="33" viewBox="0 0 33 33" fill="none" xmlns="http://www.w3.org/2000/svg">
<path d="M21.4116 23.1L24.2116 20.3C24.5887 19.9276 25.0658 19.6727 25.5851 19.5661C26.1043 19.4596 26.6433 19.5062 27.1366 19.7001L30.5491 21.0625C31.0476 21.2649 31.475 21.6103 31.7776 22.0552C32.0801 22.5001 32.2441 23.0246 32.2491 23.5625V29.8125C32.2462 30.1785 32.1692 30.5401 32.0229 30.8756C31.8766 31.211 31.6639 31.5134 31.3976 31.7645C31.1313 32.0156 30.817 32.2102 30.4735 32.3366C30.1301 32.463 29.7646 32.5186 29.3991 32.5C5.48657 31.0126 0.661569 10.7626 -0.250931 3.01255C-0.29329 2.63197 -0.254588 2.24674 -0.137371 1.88219C-0.0201541 1.51764 0.172921 1.18204 0.429153 0.897471C0.685384 0.612901 0.998965 0.385807 1.34927 0.231131C1.69957 0.0764546 2.07865 -0.00229895 2.46157 5.10863e-05H8.49907C9.03783 0.00164582 9.56379 0.164385 10.0093 0.467338C10.4548 0.77029 10.7995 1.1996 10.9991 1.70005L12.3616 5.11255C12.5619 5.60389 12.613 6.14335 12.5085 6.66357C12.404 7.18378 12.1486 7.66167 11.7741 8.03755L8.97407 10.8376C8.97407 10.8376 10.5866 21.75 21.4116 23.1Z" fill="black"/>
</svg>
