<svg width="40" height="29" viewBox="0 0 40 29" fill="none" xmlns="http://www.w3.org/2000/svg">
<path d="M5.99455 12.3681C6.35955 12.326 6.7386 12.2979 7.10361 12.2979C7.49669 12.2979 7.87574 12.326 8.25478 12.3822V9.32169H5.99455V12.3681ZM5.99455 7.39842H8.25478V4.46432C8.25478 3.00429 9.02692 2.26024 10.4308 2.26024H13.3368V0H10.4027C7.46862 0 5.99455 1.44599 5.99455 4.35201V7.39842ZM15.2601 2.26024H21.5915V0H15.2601V2.26024ZM23.5009 2.26024H29.8323V0H23.5009V2.26024ZM39.0979 7.39842V4.35201C39.0979 1.44599 37.6238 0 34.6897 0H31.7556V2.26024H34.6617C36.0656 2.26024 36.8377 3.00429 36.8377 4.46432V7.39842H39.0979ZM39.0979 16.5235V9.32169H36.8377V16.5235H39.0979ZM34.6897 25.8453C37.6238 25.8453 39.0979 24.3994 39.0979 21.4933V18.4469H36.8377V21.381C36.8377 22.8411 36.0656 23.5851 34.6617 23.5851H31.7556V25.8453H34.6897ZM23.5009 25.8453H29.8323V23.5851H23.5009V25.8453ZM14.9793 25.8313L21.5915 25.8453V23.5851H15.8638C15.6812 24.3854 15.3865 25.1293 14.9793 25.8313ZM7.13168 28.4986C11.0345 28.4986 14.2633 25.2697 14.2633 21.367C14.2633 17.4782 11.0204 14.2353 7.11765 14.2353C3.22891 14.2353 0 17.4782 0 21.367C0 25.2697 3.24295 28.4986 7.13168 28.4986ZM7.13168 26.814C4.11335 26.814 1.69869 24.3854 1.69869 21.367C1.69869 18.3627 4.11335 15.9199 7.11765 15.9199C10.136 15.9199 12.5647 18.3627 12.5787 21.367C12.5927 24.3854 10.136 26.814 7.13168 26.814ZM7.11765 25.5927C9.44808 25.5927 11.3433 23.6834 11.3433 21.381C11.3433 19.0646 9.43404 17.1554 7.11765 17.1554C4.80125 17.1554 2.90602 19.0646 2.90602 21.381C2.90602 23.6834 4.81529 25.5927 7.11765 25.5927Z" fill="black"/>
</svg>
