<svg width="34" height="32" viewBox="0 0 34 32" fill="none" xmlns="http://www.w3.org/2000/svg">
<path fill-rule="evenodd" clip-rule="evenodd" d="M0.75 5.75C0.75 2.98858 2.98858 0.75 5.75 0.75H28.25C31.0114 0.75 33.25 2.98858 33.25 5.75V25.75C33.25 28.5114 31.0114 30.75 28.25 30.75H5.75C2.98858 30.75 0.75 28.5114 0.75 25.75V5.75ZM7.36612 7.36612C7.85427 6.87796 8.64573 6.87796 9.13388 7.36612L12.8839 11.1161C13.372 11.6043 13.372 12.3957 12.8839 12.8839L9.13388 16.6339C8.64573 17.122 7.85427 17.122 7.36612 16.6339C6.87796 16.1457 6.87796 15.3543 7.36612 14.8661L10.2322 12L7.36612 9.13388C6.87796 8.64573 6.87796 7.85427 7.36612 7.36612ZM14.5 14.5C13.8096 14.5 13.25 15.0596 13.25 15.75C13.25 16.4404 13.8096 17 14.5 17H19.5C20.1904 17 20.75 16.4404 20.75 15.75C20.75 15.0596 20.1904 14.5 19.5 14.5H14.5Z" stroke="black" stroke-width="1.5"/>
</svg>
