<svg width="171" height="379" viewBox="0 0 171 379" fill="none" xmlns="http://www.w3.org/2000/svg">
<mask id="mask0_23_995" style="mask-type:alpha" maskUnits="userSpaceOnUse" x="-209" y="0" width="380" height="379">
<mask id="path-1-outside-1_23_995" maskUnits="userSpaceOnUse" x="-209.69" y="-0.753371" width="381.446" height="380.447" fill="black">
<rect fill="white" x="-209.69" y="-0.753371" width="381.446" height="380.447"/>
<path d="M-19.0227 284.164L-30.836 378.484L-30.8545 283.434L-54.408 375.533L-42.5948 281.213L-77.5177 369.695L-53.9643 277.503L-99.6992 360.97L-64.6831 272.488L-120.58 349.544L-74.7516 266.076L-139.786 335.509L-83.9829 258.546L-157.226 319.238L-92.0977 249.898L-172.432 300.916L-99.0958 240.224L-185.218 280.822L-104.884 229.804L-195.397 259.329L-109.275 218.731L-202.783 236.715L-112.27 207.191L-207.282 213.354L-113.774 195.462L-208.801 189.616L-113.788 183.546L-207.338 165.875L-112.311 171.721L-202.894 142.503L-109.344 160.174L-195.561 119.779L-104.979 149.09L-185.432 98.2615L-99.2151 138.657L-172.694 78.1379L-92.2396 129.06L-157.531 59.7802L-84.1452 120.392L-140.129 43.468L-74.9317 112.748L-120.956 29.4811L-64.8782 106.405L-100.102 18.0058L-54.1713 101.273L-77.9411 9.22881L-42.8104 97.6285L-54.8453 3.24352L-31.0754 95.3804L-31.2803 0.236799L-19.2454 94.6217L-7.43224 0.208786L-7.32047 95.3525L16.233 3.16002L4.32669 97.5732L39.2496 9.09115L15.696 101.191L61.4311 17.8161L26.415 106.298L82.3116 29.2423L36.4834 112.617L101.611 43.184L45.7148 120.24L118.958 59.4554L53.8296 128.888L134.164 77.7774L60.8276 138.469L146.95 97.8711L66.6155 148.889L157.129 119.364L71.0069 159.962L164.515 142.071L74.0015 171.502L169.014 165.433L75.5059 183.324L170.532 189.17L75.5199 195.24L169.07 212.911L74.0431 206.972L164.626 236.284L71.0757 218.519L157.293 258.915L66.7103 229.603L147.164 280.432L60.9469 240.036L134.425 300.555L53.9715 249.726L119.262 318.913L45.8771 258.394L101.954 335.225L36.6635 265.945L82.6876 349.305L26.6101 272.381L61.834 360.78L15.9031 277.421L39.673 369.557L4.54234 281.158L16.6703 375.449L-7.09958 283.406L-6.98793 378.456L-19.0227 284.164Z"/>
</mask>
<path d="M-19.0227 284.164L-30.836 378.484L-30.8545 283.434L-54.408 375.533L-42.5948 281.213L-77.5177 369.695L-53.9643 277.503L-99.6992 360.97L-64.6831 272.488L-120.58 349.544L-74.7516 266.076L-139.786 335.509L-83.9829 258.546L-157.226 319.238L-92.0977 249.898L-172.432 300.916L-99.0958 240.224L-185.218 280.822L-104.884 229.804L-195.397 259.329L-109.275 218.731L-202.783 236.715L-112.27 207.191L-207.282 213.354L-113.774 195.462L-208.801 189.616L-113.788 183.546L-207.338 165.875L-112.311 171.721L-202.894 142.503L-109.344 160.174L-195.561 119.779L-104.979 149.09L-185.432 98.2615L-99.2151 138.657L-172.694 78.1379L-92.2396 129.06L-157.531 59.7802L-84.1452 120.392L-140.129 43.468L-74.9317 112.748L-120.956 29.4811L-64.8782 106.405L-100.102 18.0058L-54.1713 101.273L-77.9411 9.22881L-42.8104 97.6285L-54.8453 3.24352L-31.0754 95.3804L-31.2803 0.236799L-19.2454 94.6217L-7.43224 0.208786L-7.32047 95.3525L16.233 3.16002L4.32669 97.5732L39.2496 9.09115L15.696 101.191L61.4311 17.8161L26.415 106.298L82.3116 29.2423L36.4834 112.617L101.611 43.184L45.7148 120.24L118.958 59.4554L53.8296 128.888L134.164 77.7774L60.8276 138.469L146.95 97.8711L66.6155 148.889L157.129 119.364L71.0069 159.962L164.515 142.071L74.0015 171.502L169.014 165.433L75.5059 183.324L170.532 189.17L75.5199 195.24L169.07 212.911L74.0431 206.972L164.626 236.284L71.0757 218.519L157.293 258.915L66.7103 229.603L147.164 280.432L60.9469 240.036L134.425 300.555L53.9715 249.726L119.262 318.913L45.8771 258.394L101.954 335.225L36.6635 265.945L82.6876 349.305L26.6101 272.381L61.834 360.78L15.9031 277.421L39.673 369.557L4.54234 281.158L16.6703 375.449L-7.09958 283.406L-6.98793 378.456L-19.0227 284.164Z" stroke="black" stroke-opacity="0.3" stroke-width="2" stroke-miterlimit="10" mask="url(#path-1-outside-1_23_995)"/>
</mask>
<g mask="url(#mask0_23_995)">
<rect x="653.765" y="399.93" width="672.923" height="410.266" rx="45" transform="rotate(179.933 653.765 399.93)" fill="black"/>
<rect x="652.764" y="398.931" width="670.923" height="408.266" rx="44" transform="rotate(179.933 652.764 398.931)" stroke="black" stroke-opacity="0.3" stroke-width="2"/>
</g>
</svg>
